<svg width="52" height="44" viewBox="0 0 52 44" fill="none" xmlns="http://www.w3.org/2000/svg">
<path d="M44.5828 22.7276C43.9987 30.9934 36.7946 37.2599 28.4222 37.2599C27.7992 37.2599 27.2929 36.7601 27.2929 36.145V32.3774C27.2929 31.7238 27.8381 31.1856 28.5001 31.1856C33.6403 31.1856 38.1186 27.3795 38.508 22.3047C38.8974 16.4995 33.9908 11.6554 28.0717 12.0783C22.9315 12.4243 19.0763 16.8455 19.0763 21.9587V24.5345H22.6589C24.0219 24.5345 24.8396 26.0339 24.0997 27.1488L17.4408 37.2215C16.7788 38.2595 15.2212 38.2595 14.5592 37.2215L7.90023 27.1488C7.16035 26.0339 7.97811 24.5345 9.34105 24.5345H12.9236V21.9972C12.9236 13.7314 19.271 6.61904 27.6434 6.04236C37.2619 5.35035 45.2448 13.2316 44.5828 22.7276Z" fill="#F2EBF5"/>
</svg>
