<svg width="75" height="44" viewBox="0 0 75 44" fill="none" xmlns="http://www.w3.org/2000/svg">
<path d="M64.8893 33.2996C61.2455 22.2201 50.6031 14.7218 38.5725 14.7218H33.5405V8.7344C33.5405 7.72717 32.9621 6.7759 31.9789 6.27229C30.9956 5.82463 29.8967 5.93654 29.0291 6.55207L11.0989 19.8139C10.4049 20.3175 10 21.1009 10 21.9963C10 22.8356 10.4049 23.619 11.0989 24.1786L29.0291 37.4404C29.5496 37.8321 30.128 38 30.7642 38C31.1691 38 31.6318 37.8881 31.9789 37.7202C32.9621 37.2726 33.5405 36.3213 33.5405 35.2581V29.2707H37.9363C44.0094 29.2707 50.0247 30.5577 55.5194 32.9639L61.9395 35.8177C63.6747 36.5451 65.4677 35.0343 64.8893 33.2996Z" fill="#F2EBF5"/>
</svg>
