<svg width="48" height="44" viewBox="0 0 48 44" fill="none" xmlns="http://www.w3.org/2000/svg">
<path d="M37.3527 6H15.6718C14.6291 5.99996 13.6285 6.41171 12.8878 7.14567C12.1471 7.87963 11.7262 8.8764 11.7168 9.9191L11.5729 29.1191H7.83362C7.54755 29.1191 7.27319 29.2327 7.0709 29.435C6.86861 29.6373 6.75497 29.9117 6.75497 30.1978V32.8225C6.74479 34.1617 7.25758 35.4521 8.18424 36.419C9.1109 37.386 10.3783 37.9532 11.7168 38H30.2696C31.6332 38 32.941 37.4583 33.9052 36.4941C34.8695 35.5298 35.4112 34.2221 35.4112 32.8584V15.9955H40.4089C40.695 15.9955 40.9693 15.8819 41.1716 15.6796C41.3739 15.4773 41.4876 15.2029 41.4876 14.9169V10.1348C41.4876 9.03821 41.0519 7.9865 40.2765 7.21106C39.5011 6.43563 38.4494 6 37.3527 6ZM33.2538 10.1348V32.8584C33.2538 33.6547 32.9375 34.4183 32.3745 34.9813C31.8115 35.5444 31.0478 35.8607 30.2516 35.8607C29.4554 35.8607 28.6917 35.5444 28.1287 34.9813C27.5657 34.4183 27.2494 33.6547 27.2494 32.8584V30.1978C27.2494 29.9117 27.1357 29.6373 26.9334 29.435C26.7311 29.2327 26.4568 29.1191 26.1707 29.1191H13.7303L13.8741 9.9191C13.8741 9.44231 14.0635 8.98504 14.4006 8.6479C14.7378 8.31075 15.195 8.12135 15.6718 8.12135H33.7572C33.4195 8.73821 33.2461 9.4316 33.2538 10.1348Z" fill="#F2EBF5"/>
<path d="M23.9056 12.0045H16.1753V14.1618H23.9056V12.0045Z" fill="#F2EBF5"/>
<path d="M30.3775 16.3191H16.1753V18.4764H30.3775V16.3191Z" fill="#F2EBF5"/>
<path d="M30.3775 20.6337H16.1753V22.791H30.3775V20.6337Z" fill="#F2EBF5"/>
<path d="M30.3775 24.9483H16.1753V27.1056H30.3775V24.9483Z" fill="#F2EBF5"/>
</svg>
